%
M48
M72
T01C0.0200
T02C0.0360
T03C0.0400
T04C0.0433
T05C0.0866
T06C0.1000
%
T01
X15900Y17650
X16850Y19090
X16550Y19490
X17150Y19490
X19000Y18250
X18500Y17650
X15000Y20300
X15150Y20790
X14750Y21140
X14350Y21540
X14600Y22050
X15150Y22200
X13750Y22140
X13200Y22050
X12600Y22150
X12590Y21610
X12540Y20500
X12920Y20190
X13250Y19790
X10500Y19150
X9700Y19150
X8900Y19450
X8100Y23250
X9100Y23900
X10100Y24990
X11300Y24390
X11800Y24550
X11800Y24050
X11950Y23590
X12500Y22890
X13650Y23190
X15500Y23450
X16000Y24250
X16700Y24250
X17400Y24250
X18060Y24230
X18750Y23830
X19340Y23270
X17900Y23350
X17940Y22770
X17940Y22070
X17240Y22070
X18550Y25250
X20400Y25250
X18200Y27250
X19000Y27750
X18400Y29050
X19400Y29550
X18900Y30850
X18100Y30150
X17500Y29750
X16500Y28650
X17300Y27600
X15400Y27300
X14950Y26800
X14750Y25900
X16700Y25950
X14550Y28400
X15200Y29050
X14700Y29300
X13600Y29690
X13300Y31390
X13250Y31890
X11050Y29740
X11000Y28740
X9400Y27350
X9400Y26850
X10100Y26140
X13100Y26690
X13100Y27490
X10200Y30890
X9800Y31290
X9300Y31290
X12800Y34490
X12800Y36990
X11800Y37190
X11300Y37290
X10800Y37290
X10300Y37290
X9800Y37090
X9300Y37250
X9300Y36850
X9800Y38940
X10800Y38940
X11900Y38950
X12700Y39190
X13700Y38250
X15300Y39340
X15900Y38540
X16500Y39150
X17110Y38550
X18100Y38550
X19080Y38460
X19050Y39140
X19650Y39190
X20450Y39240
X20830Y38220
X18350Y39540
X15900Y39990
X14700Y39990
X17200Y30900
X17700Y30950
X20800Y30850
X20900Y29550
X21400Y29550
X21500Y27750
X20800Y27750
T02
X14028Y19095
X13094Y19095
X12206Y19095
X11272Y19095
T03
X8050Y19850
X8050Y20850
X8700Y25550
X9700Y25550
X11800Y29050
X12800Y29050
X11100Y32250
X11100Y33250
X11100Y34250
X10100Y34250
X10100Y33250
X10100Y32250
X12400Y35250
X12400Y36250
T04
X20331Y22967
X19111Y22180
X20331Y21550
X19111Y20920
X22300Y21550
X22300Y23322
X22300Y19660
X13536Y18111
X11764Y18111
T05
X10367Y18150
X14933Y18150
T06
X8500Y18150
X21700Y18150
X21700Y39350
X8500Y39350
M30
