G75*
G70*
%OFA0B0*%
%FSLAX24Y24*%
%IPPOS*%
%LPD*%
%AMOC8*
5,1,8,0,0,1.08239X$1,22.5*
%
%ADD10C,0.0000*%
D10*
X007300Y016950D02*
X022900Y016950D01*
X022900Y040550D01*
X007300Y040550D01*
X007300Y016950D01*
X008000Y018150D02*
X008002Y018194D01*
X008008Y018238D01*
X008018Y018281D01*
X008031Y018323D01*
X008048Y018364D01*
X008069Y018403D01*
X008093Y018440D01*
X008120Y018475D01*
X008150Y018507D01*
X008183Y018537D01*
X008219Y018563D01*
X008256Y018587D01*
X008296Y018606D01*
X008337Y018623D01*
X008380Y018635D01*
X008423Y018644D01*
X008467Y018649D01*
X008511Y018650D01*
X008555Y018647D01*
X008599Y018640D01*
X008642Y018629D01*
X008684Y018615D01*
X008724Y018597D01*
X008763Y018575D01*
X008799Y018551D01*
X008833Y018523D01*
X008865Y018492D01*
X008894Y018458D01*
X008920Y018422D01*
X008942Y018384D01*
X008961Y018344D01*
X008976Y018302D01*
X008988Y018260D01*
X008996Y018216D01*
X009000Y018172D01*
X009000Y018128D01*
X008996Y018084D01*
X008988Y018040D01*
X008976Y017998D01*
X008961Y017956D01*
X008942Y017916D01*
X008920Y017878D01*
X008894Y017842D01*
X008865Y017808D01*
X008833Y017777D01*
X008799Y017749D01*
X008763Y017725D01*
X008724Y017703D01*
X008684Y017685D01*
X008642Y017671D01*
X008599Y017660D01*
X008555Y017653D01*
X008511Y017650D01*
X008467Y017651D01*
X008423Y017656D01*
X008380Y017665D01*
X008337Y017677D01*
X008296Y017694D01*
X008256Y017713D01*
X008219Y017737D01*
X008183Y017763D01*
X008150Y017793D01*
X008120Y017825D01*
X008093Y017860D01*
X008069Y017897D01*
X008048Y017936D01*
X008031Y017977D01*
X008018Y018019D01*
X008008Y018062D01*
X008002Y018106D01*
X008000Y018150D01*
X011547Y018111D02*
X011549Y018140D01*
X011555Y018168D01*
X011564Y018196D01*
X011577Y018222D01*
X011594Y018245D01*
X011613Y018267D01*
X011635Y018286D01*
X011660Y018301D01*
X011686Y018314D01*
X011714Y018322D01*
X011742Y018327D01*
X011771Y018328D01*
X011800Y018325D01*
X011828Y018318D01*
X011855Y018308D01*
X011881Y018294D01*
X011904Y018277D01*
X011925Y018257D01*
X011943Y018234D01*
X011958Y018209D01*
X011969Y018182D01*
X011977Y018154D01*
X011981Y018125D01*
X011981Y018097D01*
X011977Y018068D01*
X011969Y018040D01*
X011958Y018013D01*
X011943Y017988D01*
X011925Y017965D01*
X011904Y017945D01*
X011881Y017928D01*
X011855Y017914D01*
X011828Y017904D01*
X011800Y017897D01*
X011771Y017894D01*
X011742Y017895D01*
X011714Y017900D01*
X011686Y017908D01*
X011660Y017921D01*
X011635Y017936D01*
X011613Y017955D01*
X011594Y017977D01*
X011577Y018000D01*
X011564Y018026D01*
X011555Y018054D01*
X011549Y018082D01*
X011547Y018111D01*
X013319Y018111D02*
X013321Y018140D01*
X013327Y018168D01*
X013336Y018196D01*
X013349Y018222D01*
X013366Y018245D01*
X013385Y018267D01*
X013407Y018286D01*
X013432Y018301D01*
X013458Y018314D01*
X013486Y018322D01*
X013514Y018327D01*
X013543Y018328D01*
X013572Y018325D01*
X013600Y018318D01*
X013627Y018308D01*
X013653Y018294D01*
X013676Y018277D01*
X013697Y018257D01*
X013715Y018234D01*
X013730Y018209D01*
X013741Y018182D01*
X013749Y018154D01*
X013753Y018125D01*
X013753Y018097D01*
X013749Y018068D01*
X013741Y018040D01*
X013730Y018013D01*
X013715Y017988D01*
X013697Y017965D01*
X013676Y017945D01*
X013653Y017928D01*
X013627Y017914D01*
X013600Y017904D01*
X013572Y017897D01*
X013543Y017894D01*
X013514Y017895D01*
X013486Y017900D01*
X013458Y017908D01*
X013432Y017921D01*
X013407Y017936D01*
X013385Y017955D01*
X013366Y017977D01*
X013349Y018000D01*
X013336Y018026D01*
X013327Y018054D01*
X013321Y018082D01*
X013319Y018111D01*
X020114Y021550D02*
X020116Y021579D01*
X020122Y021607D01*
X020131Y021635D01*
X020144Y021661D01*
X020161Y021684D01*
X020180Y021706D01*
X020202Y021725D01*
X020227Y021740D01*
X020253Y021753D01*
X020281Y021761D01*
X020309Y021766D01*
X020338Y021767D01*
X020367Y021764D01*
X020395Y021757D01*
X020422Y021747D01*
X020448Y021733D01*
X020471Y021716D01*
X020492Y021696D01*
X020510Y021673D01*
X020525Y021648D01*
X020536Y021621D01*
X020544Y021593D01*
X020548Y021564D01*
X020548Y021536D01*
X020544Y021507D01*
X020536Y021479D01*
X020525Y021452D01*
X020510Y021427D01*
X020492Y021404D01*
X020471Y021384D01*
X020448Y021367D01*
X020422Y021353D01*
X020395Y021343D01*
X020367Y021336D01*
X020338Y021333D01*
X020309Y021334D01*
X020281Y021339D01*
X020253Y021347D01*
X020227Y021360D01*
X020202Y021375D01*
X020180Y021394D01*
X020161Y021416D01*
X020144Y021439D01*
X020131Y021465D01*
X020122Y021493D01*
X020116Y021521D01*
X020114Y021550D01*
X022083Y021550D02*
X022085Y021579D01*
X022091Y021607D01*
X022100Y021635D01*
X022113Y021661D01*
X022130Y021684D01*
X022149Y021706D01*
X022171Y021725D01*
X022196Y021740D01*
X022222Y021753D01*
X022250Y021761D01*
X022278Y021766D01*
X022307Y021767D01*
X022336Y021764D01*
X022364Y021757D01*
X022391Y021747D01*
X022417Y021733D01*
X022440Y021716D01*
X022461Y021696D01*
X022479Y021673D01*
X022494Y021648D01*
X022505Y021621D01*
X022513Y021593D01*
X022517Y021564D01*
X022517Y021536D01*
X022513Y021507D01*
X022505Y021479D01*
X022494Y021452D01*
X022479Y021427D01*
X022461Y021404D01*
X022440Y021384D01*
X022417Y021367D01*
X022391Y021353D01*
X022364Y021343D01*
X022336Y021336D01*
X022307Y021333D01*
X022278Y021334D01*
X022250Y021339D01*
X022222Y021347D01*
X022196Y021360D01*
X022171Y021375D01*
X022149Y021394D01*
X022130Y021416D01*
X022113Y021439D01*
X022100Y021465D01*
X022091Y021493D01*
X022085Y021521D01*
X022083Y021550D01*
X021200Y018150D02*
X021202Y018194D01*
X021208Y018238D01*
X021218Y018281D01*
X021231Y018323D01*
X021248Y018364D01*
X021269Y018403D01*
X021293Y018440D01*
X021320Y018475D01*
X021350Y018507D01*
X021383Y018537D01*
X021419Y018563D01*
X021456Y018587D01*
X021496Y018606D01*
X021537Y018623D01*
X021580Y018635D01*
X021623Y018644D01*
X021667Y018649D01*
X021711Y018650D01*
X021755Y018647D01*
X021799Y018640D01*
X021842Y018629D01*
X021884Y018615D01*
X021924Y018597D01*
X021963Y018575D01*
X021999Y018551D01*
X022033Y018523D01*
X022065Y018492D01*
X022094Y018458D01*
X022120Y018422D01*
X022142Y018384D01*
X022161Y018344D01*
X022176Y018302D01*
X022188Y018260D01*
X022196Y018216D01*
X022200Y018172D01*
X022200Y018128D01*
X022196Y018084D01*
X022188Y018040D01*
X022176Y017998D01*
X022161Y017956D01*
X022142Y017916D01*
X022120Y017878D01*
X022094Y017842D01*
X022065Y017808D01*
X022033Y017777D01*
X021999Y017749D01*
X021963Y017725D01*
X021924Y017703D01*
X021884Y017685D01*
X021842Y017671D01*
X021799Y017660D01*
X021755Y017653D01*
X021711Y017650D01*
X021667Y017651D01*
X021623Y017656D01*
X021580Y017665D01*
X021537Y017677D01*
X021496Y017694D01*
X021456Y017713D01*
X021419Y017737D01*
X021383Y017763D01*
X021350Y017793D01*
X021320Y017825D01*
X021293Y017860D01*
X021269Y017897D01*
X021248Y017936D01*
X021231Y017977D01*
X021218Y018019D01*
X021208Y018062D01*
X021202Y018106D01*
X021200Y018150D01*
X021200Y039350D02*
X021202Y039394D01*
X021208Y039438D01*
X021218Y039481D01*
X021231Y039523D01*
X021248Y039564D01*
X021269Y039603D01*
X021293Y039640D01*
X021320Y039675D01*
X021350Y039707D01*
X021383Y039737D01*
X021419Y039763D01*
X021456Y039787D01*
X021496Y039806D01*
X021537Y039823D01*
X021580Y039835D01*
X021623Y039844D01*
X021667Y039849D01*
X021711Y039850D01*
X021755Y039847D01*
X021799Y039840D01*
X021842Y039829D01*
X021884Y039815D01*
X021924Y039797D01*
X021963Y039775D01*
X021999Y039751D01*
X022033Y039723D01*
X022065Y039692D01*
X022094Y039658D01*
X022120Y039622D01*
X022142Y039584D01*
X022161Y039544D01*
X022176Y039502D01*
X022188Y039460D01*
X022196Y039416D01*
X022200Y039372D01*
X022200Y039328D01*
X022196Y039284D01*
X022188Y039240D01*
X022176Y039198D01*
X022161Y039156D01*
X022142Y039116D01*
X022120Y039078D01*
X022094Y039042D01*
X022065Y039008D01*
X022033Y038977D01*
X021999Y038949D01*
X021963Y038925D01*
X021924Y038903D01*
X021884Y038885D01*
X021842Y038871D01*
X021799Y038860D01*
X021755Y038853D01*
X021711Y038850D01*
X021667Y038851D01*
X021623Y038856D01*
X021580Y038865D01*
X021537Y038877D01*
X021496Y038894D01*
X021456Y038913D01*
X021419Y038937D01*
X021383Y038963D01*
X021350Y038993D01*
X021320Y039025D01*
X021293Y039060D01*
X021269Y039097D01*
X021248Y039136D01*
X021231Y039177D01*
X021218Y039219D01*
X021208Y039262D01*
X021202Y039306D01*
X021200Y039350D01*
X008000Y039350D02*
X008002Y039394D01*
X008008Y039438D01*
X008018Y039481D01*
X008031Y039523D01*
X008048Y039564D01*
X008069Y039603D01*
X008093Y039640D01*
X008120Y039675D01*
X008150Y039707D01*
X008183Y039737D01*
X008219Y039763D01*
X008256Y039787D01*
X008296Y039806D01*
X008337Y039823D01*
X008380Y039835D01*
X008423Y039844D01*
X008467Y039849D01*
X008511Y039850D01*
X008555Y039847D01*
X008599Y039840D01*
X008642Y039829D01*
X008684Y039815D01*
X008724Y039797D01*
X008763Y039775D01*
X008799Y039751D01*
X008833Y039723D01*
X008865Y039692D01*
X008894Y039658D01*
X008920Y039622D01*
X008942Y039584D01*
X008961Y039544D01*
X008976Y039502D01*
X008988Y039460D01*
X008996Y039416D01*
X009000Y039372D01*
X009000Y039328D01*
X008996Y039284D01*
X008988Y039240D01*
X008976Y039198D01*
X008961Y039156D01*
X008942Y039116D01*
X008920Y039078D01*
X008894Y039042D01*
X008865Y039008D01*
X008833Y038977D01*
X008799Y038949D01*
X008763Y038925D01*
X008724Y038903D01*
X008684Y038885D01*
X008642Y038871D01*
X008599Y038860D01*
X008555Y038853D01*
X008511Y038850D01*
X008467Y038851D01*
X008423Y038856D01*
X008380Y038865D01*
X008337Y038877D01*
X008296Y038894D01*
X008256Y038913D01*
X008219Y038937D01*
X008183Y038963D01*
X008150Y038993D01*
X008120Y039025D01*
X008093Y039060D01*
X008069Y039097D01*
X008048Y039136D01*
X008031Y039177D01*
X008018Y039219D01*
X008008Y039262D01*
X008002Y039306D01*
X008000Y039350D01*
M02*
