G75*
G70*
%OFA0B0*%
%FSLAX24Y24*%
%IPPOS*%
%LPD*%
%AMOC8*
5,1,8,0,0,1.08239X$1,22.5*
%
%ADD10C,0.1060*%
%ADD11C,0.0800*%
%ADD12C,0.1359*%
%ADD13C,0.0493*%
%ADD14OC8,0.0800*%
%ADD15C,0.0710*%
%ADD16C,0.0420*%
D10*
X008500Y018150D03*
X021700Y018150D03*
X021700Y039350D03*
X008500Y039350D03*
D11*
X012400Y036250D03*
X012400Y035250D03*
X012800Y029050D03*
X011800Y029050D03*
X009700Y025550D03*
X008700Y025550D03*
X008050Y020850D03*
X008050Y019850D03*
X011272Y019095D03*
X012206Y019095D03*
X013094Y019095D03*
X014028Y019095D03*
D12*
X014933Y018150D03*
X010367Y018150D03*
D13*
X011764Y018111D03*
X013536Y018111D03*
X020331Y021550D03*
X022300Y021550D03*
D14*
X011100Y032250D03*
X011100Y033250D03*
X011100Y034250D03*
X010100Y034250D03*
X010100Y033250D03*
X010100Y032250D03*
D15*
X020331Y022967D03*
X019111Y022180D03*
X019111Y020920D03*
X022300Y019660D03*
X022300Y023322D03*
D16*
X015900Y017650D03*
X016850Y019090D03*
X016550Y019490D03*
X017150Y019490D03*
X019000Y018250D03*
X018500Y017650D03*
X015000Y020300D03*
X015150Y020790D03*
X014750Y021140D03*
X014350Y021540D03*
X014600Y022050D03*
X015150Y022200D03*
X013750Y022140D03*
X013200Y022050D03*
X012600Y022150D03*
X012590Y021610D03*
X012540Y020500D03*
X012920Y020190D03*
X013250Y019790D03*
X010500Y019150D03*
X009700Y019150D03*
X008900Y019450D03*
X008100Y023250D03*
X009100Y023900D03*
X010100Y024990D03*
X011300Y024390D03*
X011800Y024550D03*
X011800Y024050D03*
X011950Y023590D03*
X012500Y022890D03*
X013650Y023190D03*
X015500Y023450D03*
X016000Y024250D03*
X016700Y024250D03*
X017400Y024250D03*
X018060Y024230D03*
X018750Y023830D03*
X019340Y023270D03*
X017900Y023350D03*
X017940Y022770D03*
X017940Y022070D03*
X017240Y022070D03*
X018550Y025250D03*
X020400Y025250D03*
X018200Y027250D03*
X019000Y027750D03*
X018400Y029050D03*
X019400Y029550D03*
X018900Y030850D03*
X018100Y030150D03*
X017500Y029750D03*
X016500Y028650D03*
X017300Y027600D03*
X015400Y027300D03*
X014950Y026800D03*
X014750Y025900D03*
X016700Y025950D03*
X014550Y028400D03*
X015200Y029050D03*
X014700Y029300D03*
X013600Y029690D03*
X013300Y031390D03*
X013250Y031890D03*
X011050Y029740D03*
X011000Y028740D03*
X009400Y027350D03*
X009400Y026850D03*
X010100Y026140D03*
X013100Y026690D03*
X013100Y027490D03*
X010200Y030890D03*
X009800Y031290D03*
X009300Y031290D03*
X012800Y034490D03*
X012800Y036990D03*
X011800Y037190D03*
X011300Y037290D03*
X010800Y037290D03*
X010300Y037290D03*
X009800Y037090D03*
X009300Y037250D03*
X009300Y036850D03*
X009800Y038940D03*
X010800Y038940D03*
X011900Y038950D03*
X012700Y039190D03*
X013700Y038250D03*
X015300Y039340D03*
X015900Y038540D03*
X016500Y039150D03*
X017110Y038550D03*
X018100Y038550D03*
X019080Y038460D03*
X019050Y039140D03*
X019650Y039190D03*
X020450Y039240D03*
X020830Y038220D03*
X018350Y039540D03*
X015900Y039990D03*
X014700Y039990D03*
X017200Y030900D03*
X017700Y030950D03*
X020800Y030850D03*
X020900Y029550D03*
X021400Y029550D03*
X021500Y027750D03*
X020800Y027750D03*
M02*
