<?xml version="1.0" encoding="UTF-8"?>
<svg xmlns="http://www.w3.org/2000/svg" xmlns:xlink="http://www.w3.org/1999/xlink" fill-opacity="1" color-rendering="auto" color-interpolation="auto" stroke="black" text-rendering="auto" stroke-linecap="square" width="800" stroke-miterlimit="10" stroke-opacity="1" shape-rendering="auto" fill="black" stroke-dasharray="none" font-weight="normal" stroke-width="1" height="164" font-family="'Dialog'" font-style="normal" stroke-linejoin="miter" font-size="12" stroke-dashoffset="0" image-rendering="auto">
  <!--Generated by ySVG-->
  <defs id="genericDefs"/>
  <g>
    <defs id="defs1">
      <linearGradient x1="250.792" gradientUnits="userSpaceOnUse" x2="330.792" y1="339" y2="379" id="linearGradient1" spreadMethod="pad">
        <stop stop-opacity="1" stop-color="rgb(232,238,247)" offset="0%"/>
        <stop stop-opacity="1" stop-color="rgb(183,201,227)" offset="100%"/>
      </linearGradient>
      <linearGradient x1="420.896" gradientUnits="userSpaceOnUse" x2="500.896" y1="339" y2="379" id="linearGradient2" spreadMethod="pad">
        <stop stop-opacity="1" stop-color="rgb(232,238,247)" offset="0%"/>
        <stop stop-opacity="1" stop-color="rgb(183,201,227)" offset="100%"/>
      </linearGradient>
      <linearGradient x1="591" gradientUnits="userSpaceOnUse" x2="671" y1="339" y2="379" id="linearGradient3" spreadMethod="pad">
        <stop stop-opacity="1" stop-color="rgb(232,238,247)" offset="0%"/>
        <stop stop-opacity="1" stop-color="rgb(183,201,227)" offset="100%"/>
      </linearGradient>
      <linearGradient x1="914.704" gradientUnits="userSpaceOnUse" x2="994.704" y1="339" y2="379" id="linearGradient4" spreadMethod="pad">
        <stop stop-opacity="1" stop-color="rgb(232,238,247)" offset="0%"/>
        <stop stop-opacity="1" stop-color="rgb(183,201,227)" offset="100%"/>
      </linearGradient>
      <linearGradient x1="591" gradientUnits="userSpaceOnUse" x2="671" y1="250.3017" y2="290.3017" id="linearGradient5" spreadMethod="pad">
        <stop stop-opacity="1" stop-color="rgb(232,238,247)" offset="0%"/>
        <stop stop-opacity="1" stop-color="rgb(183,201,227)" offset="100%"/>
      </linearGradient>
      <linearGradient x1="337.5939" gradientUnits="userSpaceOnUse" x2="417.5939" y1="250.3017" y2="290.3017" id="linearGradient6" spreadMethod="pad">
        <stop stop-opacity="1" stop-color="rgb(232,238,247)" offset="0%"/>
        <stop stop-opacity="1" stop-color="rgb(183,201,227)" offset="100%"/>
      </linearGradient>
      <linearGradient x1="761.104" gradientUnits="userSpaceOnUse" x2="841.104" y1="339" y2="379" id="linearGradient7" spreadMethod="pad">
        <stop stop-opacity="1" stop-color="rgb(232,238,247)" offset="0%"/>
        <stop stop-opacity="1" stop-color="rgb(183,201,227)" offset="100%"/>
      </linearGradient>
      <linearGradient x1="761.104" gradientUnits="userSpaceOnUse" x2="841.104" y1="250.3017" y2="290.3017" id="linearGradient8" spreadMethod="pad">
        <stop stop-opacity="1" stop-color="rgb(232,238,247)" offset="0%"/>
        <stop stop-opacity="1" stop-color="rgb(183,201,227)" offset="100%"/>
      </linearGradient>
      <clipPath clipPathUnits="userSpaceOnUse" id="clipPath1">
        <path d="M0 0 L800 0 L800 164 L0 164 L0 0 Z"/>
      </clipPath>
      <clipPath clipPathUnits="userSpaceOnUse" id="clipPath2">
        <path d="M235 235 L1010 235 L1010 393.875 L235 393.875 L235 235 Z"/>
      </clipPath>
    </defs>
    <g fill="white" transform="scale(1.0323,1.0323) translate(-235,-235)" stroke="white">
      <rect x="235" width="775" height="159" y="235" clip-path="url(#clipPath2)" stroke="none"/>
    </g>
    <g fill="url(#linearGradient1)" stroke-miterlimit="1.45" transform="matrix(1.0323,0,0,1.0323,-242.5806,-242.5806)" stroke-linecap="butt" stroke="url(#linearGradient1)">
      <path d="M250.792 339 L330.792 339 L330.792 379 L250.792 379 Z" clip-path="url(#clipPath2)" stroke="none"/>
      <path fill="none" d="M250.792 339 L330.792 339 L330.792 379 L250.792 379 Z" clip-path="url(#clipPath2)" stroke="black"/>
      <text x="278.4756" y="363.1543" clip-path="url(#clipPath2)" fill="black" font-family="sans-serif" stroke="none" xml:space="preserve">USB</text>
    </g>
    <g fill="url(#linearGradient2)" stroke-miterlimit="1.45" transform="matrix(1.0323,0,0,1.0323,-242.5806,-242.5806)" stroke-linecap="butt" stroke="url(#linearGradient2)">
      <path d="M420.896 339 L500.896 339 L500.896 379 L420.896 379 Z" clip-path="url(#clipPath2)" stroke="none"/>
      <path fill="none" d="M420.896 339 L500.896 339 L500.896 379 L420.896 379 Z" clip-path="url(#clipPath2)" stroke="black"/>
      <text x="447.3901" y="356.1699" clip-path="url(#clipPath2)" fill="black" font-family="sans-serif" stroke="none" xml:space="preserve">FTDI</text>
      <text x="424.4097" y="370.1387" clip-path="url(#clipPath2)" fill="black" font-family="sans-serif" stroke="none" xml:space="preserve">USB-&gt;Serial</text>
    </g>
    <g fill="url(#linearGradient3)" stroke-miterlimit="1.45" transform="matrix(1.0323,0,0,1.0323,-242.5806,-242.5806)" stroke-linecap="butt" stroke="url(#linearGradient3)">
      <path d="M591 339 L671 339 L671 379 L591 379 Z" clip-path="url(#clipPath2)" stroke="none"/>
      <path fill="none" d="M591 339 L671 339 L671 379 L591 379 Z" clip-path="url(#clipPath2)" stroke="black"/>
      <text x="604.7617" y="356.1699" clip-path="url(#clipPath2)" fill="black" font-family="sans-serif" stroke="none" xml:space="preserve">Bluegiga</text>
      <text x="611.8604" y="370.1387" clip-path="url(#clipPath2)" fill="black" font-family="sans-serif" stroke="none" xml:space="preserve">WT32 </text>
    </g>
    <g fill="url(#linearGradient4)" stroke-miterlimit="1.45" transform="matrix(1.0323,0,0,1.0323,-242.5806,-242.5806)" stroke-linecap="butt" stroke="url(#linearGradient4)">
      <path d="M914.704 339 L994.704 339 L994.704 379 L914.704 379 Z" clip-path="url(#clipPath2)" stroke="none"/>
      <path fill="none" d="M914.704 339 L994.704 339 L994.704 379 L914.704 379 Z" clip-path="url(#clipPath2)" stroke="black"/>
      <text x="939.4432" y="356.1699" clip-path="url(#clipPath2)" fill="black" font-family="sans-serif" stroke="none" xml:space="preserve">4-pin</text>
      <text x="923.5233" y="370.1387" clip-path="url(#clipPath2)" fill="black" font-family="sans-serif" stroke="none" xml:space="preserve">Audio Jack</text>
    </g>
    <g fill="url(#linearGradient5)" stroke-miterlimit="1.45" transform="matrix(1.0323,0,0,1.0323,-242.5806,-242.5806)" stroke-linecap="butt" stroke="url(#linearGradient5)">
      <path d="M591 250.3017 L671 250.3017 L671 290.3017 L591 290.3017 Z" clip-path="url(#clipPath2)" stroke="none"/>
      <path fill="none" d="M591 250.3017 L671 250.3017 L671 290.3017 L591 290.3017 Z" clip-path="url(#clipPath2)" stroke="black"/>
      <text x="616.1201" y="274.456" clip-path="url(#clipPath2)" fill="black" font-family="sans-serif" stroke="none" xml:space="preserve">LEDs</text>
    </g>
    <g fill="url(#linearGradient6)" stroke-miterlimit="1.45" transform="matrix(1.0323,0,0,1.0323,-242.5806,-242.5806)" stroke-linecap="butt" stroke="url(#linearGradient6)">
      <path d="M337.5939 250.3017 L417.5939 250.3017 L417.5939 290.3017 L337.5939 290.3017 Z" clip-path="url(#clipPath2)" stroke="none"/>
      <path fill="none" d="M337.5939 250.3017 L417.5939 250.3017 L417.5939 290.3017 L337.5939 290.3017 Z" clip-path="url(#clipPath2)" stroke="black"/>
      <text x="364.5011" y="267.4716" clip-path="url(#clipPath2)" fill="black" font-family="sans-serif" stroke="none" xml:space="preserve">3.3v</text>
      <text x="348.2882" y="281.4403" clip-path="url(#clipPath2)" fill="black" font-family="sans-serif" stroke="none" xml:space="preserve">Regulator</text>
    </g>
    <g fill="url(#linearGradient7)" stroke-miterlimit="1.45" transform="matrix(1.0323,0,0,1.0323,-242.5806,-242.5806)" stroke-linecap="butt" stroke="url(#linearGradient7)">
      <path d="M761.104 339 L841.104 339 L841.104 379 L761.104 379 Z" clip-path="url(#clipPath2)" stroke="none"/>
      <path fill="none" d="M761.104 339 L841.104 339 L841.104 379 L761.104 379 Z" clip-path="url(#clipPath2)" stroke="black"/>
      <text x="780.2622" y="356.1699" clip-path="url(#clipPath2)" fill="black" font-family="sans-serif" stroke="none" xml:space="preserve">Output</text>
      <text x="774.0747" y="370.1387" clip-path="url(#clipPath2)" fill="black" font-family="sans-serif" stroke="none" xml:space="preserve">Amplifier</text>
    </g>
    <g fill="url(#linearGradient8)" stroke-miterlimit="1.45" transform="matrix(1.0323,0,0,1.0323,-242.5806,-242.5806)" stroke-linecap="butt" stroke="url(#linearGradient8)">
      <path d="M761.104 250.3017 L841.104 250.3017 L841.104 290.3017 L761.104 290.3017 Z" clip-path="url(#clipPath2)" stroke="none"/>
      <path fill="none" d="M761.104 250.3017 L841.104 250.3017 L841.104 290.3017 L761.104 290.3017 Z" clip-path="url(#clipPath2)" stroke="black"/>
      <text x="766.0474" y="267.4716" clip-path="url(#clipPath2)" fill="black" font-family="sans-serif" stroke="none" xml:space="preserve">Microphone</text>
      <text x="764.3804" y="281.4403" clip-path="url(#clipPath2)" fill="black" font-family="sans-serif" stroke="none" xml:space="preserve">Bias + Filter</text>
    </g>
    <g stroke-linecap="butt" transform="matrix(1.0323,0,0,1.0323,-242.5806,-242.5806)" stroke-miterlimit="1.45">
      <path fill="none" d="M338.7847 359 L412.9033 359" clip-path="url(#clipPath2)"/>
    </g>
    <g stroke-linecap="butt" transform="matrix(1.0323,0,0,1.0323,-242.5806,-242.5806)" stroke-miterlimit="1.45">
      <path d="M330.7847 359 L342.7847 364 L339.7847 359 L342.7847 354 Z" clip-path="url(#clipPath2)" stroke="none"/>
      <path d="M420.9033 359 L408.9033 354 L411.9033 359 L408.9033 364 Z" clip-path="url(#clipPath2)" stroke="none"/>
      <path fill="none" d="M508.8887 359 L583.0073 359" clip-path="url(#clipPath2)"/>
      <path d="M500.8887 359 L512.8887 364 L509.8887 359 L512.8887 354 Z" clip-path="url(#clipPath2)" stroke="none"/>
      <path d="M591.0073 359 L579.0073 354 L582.0073 359 L579.0073 364 Z" clip-path="url(#clipPath2)" stroke="none"/>
      <path fill="none" d="M631 339.0342 L631 298.2704" clip-path="url(#clipPath2)"/>
      <path d="M631 290.2704 L626 302.2704 L631 299.2704 L636 302.2704 Z" clip-path="url(#clipPath2)" stroke="none"/>
      <path fill="none" d="M290.792 339.0342 L290.792 270.3017 L329.626 270.3017" clip-path="url(#clipPath2)"/>
      <path d="M337.626 270.3017 L325.626 265.3017 L328.626 270.3017 L325.626 275.3017 Z" clip-path="url(#clipPath2)" stroke="none"/>
      <path fill="none" d="M417.5773 270.3017 L460.896 270.3017 L460.896 331.0342" clip-path="url(#clipPath2)"/>
      <path d="M460.896 339.0342 L465.896 327.0342 L460.896 330.0342 L455.896 327.0342 Z" clip-path="url(#clipPath2)" stroke="none"/>
      <path fill="none" d="M417.6339 270.3017 L541.4339 270.3017 L605.1327 333.3833" clip-path="url(#clipPath2)"/>
      <path d="M610.817 339.0125 L605.8088 327.016 L604.4222 332.6796 L598.7723 334.1214 Z" clip-path="url(#clipPath2)" stroke="none"/>
      <path fill="none" d="M670.9927 359 L753.1113 359" clip-path="url(#clipPath2)"/>
      <path d="M761.1113 359 L749.1113 354 L752.1113 359 L749.1113 364 Z" clip-path="url(#clipPath2)" stroke="none"/>
      <path fill="none" d="M841.1165 359 L906.6877 359" clip-path="url(#clipPath2)"/>
      <path d="M914.6877 359 L902.6877 354 L905.6877 359 L902.6877 364 Z" clip-path="url(#clipPath2)" stroke="none"/>
      <path fill="none" d="M920.0915 339.0125 L842.6881 294.315" clip-path="url(#clipPath2)"/>
      <path d="M835.7603 290.3144 L843.6517 300.6452 L843.5541 294.8151 L848.6524 291.9854 Z" clip-path="url(#clipPath2)" stroke="none"/>
      <path fill="none" d="M762.7725 290.2891 L676.4736 335.2885" clip-path="url(#clipPath2)"/>
      <path d="M669.38 338.9873 L682.3321 337.8725 L677.3602 334.8261 L677.7086 329.0056 Z" clip-path="url(#clipPath2)" stroke="none"/>
    </g>
  </g>
</svg>
